<?xml version="1.0" encoding="UTF-8"?>
<svg id="Layer_1" data-name="Layer 1" xmlns="http://www.w3.org/2000/svg" xmlns:xlink="http://www.w3.org/1999/xlink" viewBox="0 0 35 35">
  <defs>
    <style>
      .cls-1 {
        fill: none;
      }

      .cls-2 {
        clip-path: url(#clippath);
      }

      .cls-3 {
        fill: #fff;
      }

      .cls-4 {
        fill: #8f8f8f;
      }

      .cls-5 {
        clip-path: url(#clippath-1);
      }

      .cls-6 {
        clip-path: url(#clippath-4);
      }

      .cls-7 {
        clip-path: url(#clippath-3);
      }

      .cls-8 {
        clip-path: url(#clippath-2);
      }
    </style>
    <clipPath id="clippath">
      <rect class="cls-1" width="35" height="35"/>
    </clipPath>
    <clipPath id="clippath-1">
      <rect class="cls-1" x=".03" y="15.63" width="34.95" height="19.34"/>
    </clipPath>
    <clipPath id="clippath-2">
      <rect class="cls-1" x=".03" y="15.63" width="34.95" height="19.34"/>
    </clipPath>
    <clipPath id="clippath-3">
      <rect class="cls-1" x=".26" y=".03" width="34.49" height="17.39"/>
    </clipPath>
    <clipPath id="clippath-4">
      <rect class="cls-1" x=".26" y=".03" width="34.49" height="17.39"/>
    </clipPath>
  </defs>
  <g class="cls-2">
    <g id="Group_42" data-name="Group 42">
      <path id="Path_31" data-name="Path 31" class="cls-4" d="M16.89,16.11v.07s0-.05,0-.07"/>
      <path id="Path_32" data-name="Path 32" class="cls-4" d="M16.89,15.78v.07s0-.05,0-.07"/>
      <path id="Path_33" data-name="Path 33" class="cls-4" d="M16.89,15.78s0,.05,0,.07c-.01-.02-.01-.05,0-.07"/>
      <path id="Path_34" data-name="Path 34" class="cls-4" d="M16.89,16.18s-.01-.05,0-.07c0,.02,0,.05,0,.07"/>
      <path id="Path_35" data-name="Path 35" class="cls-4" d="M14.21,13s-.05,0-.07,0h.07Z"/>
      <path id="Path_36" data-name="Path 36" class="cls-4" d="M14.21,13s-.05,.01-.07,0c.02,0,.05,0,.07,0"/>
      <path id="Path_37" data-name="Path 37" class="cls-4" d="M13.83,13h.07s-.05,0-.07,0"/>
      <path id="Path_38" data-name="Path 38" class="cls-4" d="M13.9,13s-.05,.01-.07,0c.02,0,.05,0,.07,0"/>
      <g id="Group_37" data-name="Group 37">
        <g class="cls-5">
          <g id="Group_36" data-name="Group 36">
            <g id="Group_35" data-name="Group 35">
              <g class="cls-8">
                <g id="Group_34" data-name="Group 34">
                  <path id="Path_39" data-name="Path 39" class="cls-3" d="M34.98,32.69c.06,1.2-.87,2.22-2.07,2.28-.04,0-.08,0-.13,0-2.04-.03-4.09,0-6.13,0h-7.46c-2.09,0-4.19-.01-6.28-.01s-4.07,0-6.11,.01H2.27c-1.17,.07-2.17-.82-2.24-1.99,0-.11,0-.21,0-.32,0-3.23,0-6.47,0-9.7v-7.33c.5,.35,.95,.67,1.4,.99l9.68,6.9c1.84,1.31,3.67,2.62,5.51,3.92,.52,.42,1.27,.42,1.79,0,1.71-1.22,3.42-2.44,5.13-3.67,2.23-1.59,4.47-3.18,6.7-4.77,1.47-1.05,2.95-2.1,4.42-3.15,.09-.06,.18-.12,.32-.22v.36c0,2.88,0,5.76,0,8.64,0,2.68-.02,5.37,.01,8.05"/>
                </g>
              </g>
            </g>
          </g>
        </g>
      </g>
      <g id="Group_41" data-name="Group 41">
        <g class="cls-7">
          <g id="Group_40" data-name="Group 40">
            <g id="Group_39" data-name="Group 39">
              <g class="cls-6">
                <g id="Group_38" data-name="Group 38">
                  <path id="Path_40" data-name="Path 40" class="cls-3" d="M32.12,12.18c.87,.74,1.73,1.48,2.62,2.26l-4.19,2.98v-1.39c0-2.41,0-4.83,0-7.24,.04-1.24-.93-2.28-2.17-2.32-.01,0-.02,0-.03,0-2.05,0-4.11,0-6.16,0-2.33,0-4.67,0-7.01,0-2.83,0-5.67,0-8.5,0-1.22-.03-2.23,.93-2.27,2.15,0,.07,0,.15,0,.22v6.93c0,.43,0,.86,0,1.29v.36L.26,14.43l1.92-1.65c.24-.21,.5-.41,.72-.63,.09-.09,.14-.22,.15-.35,.01-1.11,0-2.23,.02-3.34,.08-1.8,1.48-3.27,3.28-3.42,1.51-.04,3.02-.02,4.54-.02,.2,0,.39-.07,.54-.21,1.67-1.45,3.35-2.89,5.02-4.33,.54-.58,1.45-.62,2.03-.08,.03,.03,.05,.05,.08,.08,1.71,1.48,3.43,2.95,5.14,4.42,.1,.07,.22,.11,.34,.11h4.24c2.01-.02,3.65,1.59,3.67,3.59,0,.07,0,.15,0,.22v2.95c0,.15,.06,.3,.18,.39"/>
                </g>
              </g>
            </g>
          </g>
        </g>
      </g>
      <path id="Path_41" data-name="Path 41" class="cls-3" d="M17.96,18.87c-.38,.23-.77,.43-1.19,.58-1.29,.33-2.6-.45-2.93-1.74-.06-.22-.08-.44-.07-.66-.1-1.37,.37-2.72,1.3-3.74,.63-.72,1.59-1.07,2.54-.92,.54,.07,1.01,.39,1.27,.86l.18-.71h1.67c-.12,.58-.24,1.14-.35,1.71-.22,1.1-.45,2.19-.66,3.29-.04,.2-.12,.43,.07,.58s.4,.01,.58-.09c.97-.6,1.61-1.6,1.76-2.72,.29-1.64-.54-3.27-2.04-3.99-.93-.39-1.95-.53-2.96-.4-1.16,.07-2.25,.57-3.07,1.39-.77,.81-1.27,1.84-1.44,2.95-.22,1.05-.12,2.15,.29,3.14,.42,1.07,1.27,1.9,2.34,2.3,1.61,.61,3.38,.65,5.02,.12,.76-.23,1.43-.67,1.93-1.28,.05-.06,.12-.11,.2-.12,.4-.01,.8,0,1.27,0-.21,.33-.36,.62-.56,.88-.65,.83-1.56,1.44-2.58,1.72-1.87,.57-3.88,.51-5.71-.18-1.79-.63-3.07-2.22-3.31-4.1-.56-2.44,.26-5,2.14-6.65,.77-.67,1.71-1.11,2.72-1.26,1.19-.24,2.42-.18,3.58,.17,1.88,.6,3.21,2.29,3.33,4.27,.19,1.73-.53,3.44-1.9,4.51-.72,.58-1.64,.85-2.56,.75-.4,0-.75-.26-.86-.65m-2.57-2.22c.01,.18,0,.31,.03,.44,0,.53,.33,1,.82,1.18,.5,.17,1.06-.02,1.37-.45,.74-.9,1.06-2.07,.88-3.23-.04-.62-.58-1.09-1.2-1.05-.12,0-.24,.04-.36,.08-.47,.17-.84,.53-1.04,.98-.29,.64-.46,1.33-.49,2.04"/>
    </g>
  </g>
</svg>