<?xml version="1.0" encoding="UTF-8"?>
<svg id="Layer_1" data-name="Layer 1" xmlns="http://www.w3.org/2000/svg" xmlns:xlink="http://www.w3.org/1999/xlink" viewBox="0 0 54.04 54">
  <defs>
    <style>
      .cls-1 {
        fill: none;
      }

      .cls-2 {
        clip-path: url(#clippath);
      }

      .cls-3 {
        fill: #fff;
      }
    </style>
    <clipPath id="clippath">
      <rect class="cls-1" x=".04" width="54" height="54"/>
    </clipPath>
  </defs>
  <g id="Group_31" data-name="Group 31">
    <g class="cls-2">
      <g id="Group_30" data-name="Group 30">
        <path id="Path_27" data-name="Path 27" class="cls-3" d="M22.36,53.97c-5.71-.96-10.94-3.79-14.87-8.04C1.71,39.96-.95,31.63,.3,23.41c.76-6.13,3.66-11.79,8.19-15.99C12.28,3.76,17.07,1.32,22.25,.4c.76-.14,1.53-.14,2.28-.34,.07,0,.14-.02,.19-.06h.52c.19,.13,.45,.13,.64,0h2.32c.19,.13,.44,.13,.63,0h.53c.46,.15,.94,.23,1.42,.23,6.1,.85,11.72,3.78,15.91,8.3,3.63,3.83,6.04,8.65,6.95,13.84,.14,.77,.14,1.54,.35,2.29v.02c0,.06,.01,.12,.05,.16v.53c-.13,.19-.13,.44,0,.64v2.34c-.13,.19-.13,.44,0,.64v.64c-.2,.76-.33,1.54-.39,2.32-1.97,11.21-10.72,20.01-21.92,22.03-.45,.08-.47-.06-.47-.42,0-6,.01-12-.01-18,0-.43,.14-.53,.54-.51,1.71,.02,3.44-.02,5.16,.02,.51,0,.65-.16,.71-.63,.32-2.2,.66-4.4,.99-6.61q.1-.64-.55-.64c-2.12,0-4.25-.01-6.39,.01-.37,0-.47-.1-.47-.47,.03-1.64,0-3.26,.04-4.88-.11-2.05,1.46-3.8,3.51-3.92,1.28-.1,2.56-.13,3.84-.07,.31-.01,.43-.07,.43-.41-.02-1.97-.02-3.93,0-5.89,0-.28-.07-.4-.36-.44-2.51-.47-5.07-.6-7.61-.36-2.31,.23-4.43,1.33-5.94,3.09-1.54,1.92-2.37,4.32-2.33,6.78-.04,2.02-.02,4.04,0,6.05,.01,.4-.08,.53-.51,.53-1.98-.02-3.94,0-5.9-.02-.34,0-.45,.09-.45,.44,.01,2.32,.01,4.63,0,6.95-.01,.36,.09,.48,.46,.47,1.98,0,3.94,0,5.91,0,.39,0,.49,.1,.49,.49-.01,6.02-.01,12.04,0,18.05,0,.36-.05,.47-.46,.39"/>
      </g>
    </g>
  </g>
</svg>