<?xml version="1.0" encoding="UTF-8"?>
<svg id="Layer_1" data-name="Layer 1" xmlns="http://www.w3.org/2000/svg" xmlns:xlink="http://www.w3.org/1999/xlink" viewBox="0 0 35 50.85">
  <defs>
    <style>
      .cls-1 {
        fill: none;
      }

      .cls-2 {
        clip-path: url(#clippath);
      }

      .cls-3 {
        fill: #fff;
      }
    </style>
    <clipPath id="clippath">
      <rect class="cls-1" width="35" height="50.84"/>
    </clipPath>
  </defs>
  <g class="cls-2">
    <g id="Group_32" data-name="Group 32">
      <path id="Path_28" data-name="Path 28" class="cls-3" d="M17.6,0c1.08,.14,2.16,.2,3.22,.42,6.53,1.35,11.48,6.7,12.32,13.32,.26,2.95-.13,5.93-1.14,8.72-1.39,4.05-3.21,7.94-5.44,11.6-2.48,4.24-5.24,8.31-8.24,12.19-.61,.79-1.06,.79-1.62,0-4.57-6.13-8.54-12.68-11.86-19.57-1.39-2.74-2.36-5.66-2.88-8.69-.89-6.49,1.47-11.62,6.88-15.36C11.19,1.03,13.96,.14,16.81,.08c.19,0,.39-.05,.58-.08h.21Zm-.1,44.83c.13-.17,.23-.28,.33-.41,2.84-3.76,5.44-7.7,7.8-11.78,2.23-3.7,4-7.65,5.29-11.78,.86-2.6,1.05-5.38,.55-8.07C29.79,5.07,22.18,.17,14.46,1.84c-1.49,.32-2.91,.88-4.22,1.65C5.19,6.4,2.48,12.14,3.44,17.88c.54,2.75,1.43,5.42,2.65,7.94,2.89,6.07,6.31,11.87,10.22,17.34,.38,.55,.77,1.09,1.18,1.67"/>
      <path id="Path_29" data-name="Path 29" class="cls-3" d="M16.34,50.83c-3.93,0-7.85-.47-11.66-1.42-1.08-.34-2.14-.76-3.16-1.25-.32-.16-.6-.38-.85-.64-.8-.66-.91-1.84-.25-2.63,.08-.09,.16-.18,.26-.26,.81-.75,1.81-1.28,2.89-1.54,1.68-.44,3.39-.79,5.1-1.15,.4-.13,.83,.09,.95,.49,0,.03,.02,.06,.02,.09,.08,.43-.23,.76-.78,.88-1.68,.37-3.37,.73-5.03,1.17-.63,.19-1.23,.47-1.77,.84-.75,.47-.76,.96,.04,1.37,.89,.47,1.83,.85,2.8,1.14,4.18,1.07,8.5,1.55,12.81,1.42,3.89,.07,7.77-.33,11.56-1.2,.98-.24,1.92-.63,2.88-.95,.14-.04,.27-.11,.38-.19,.32-.29,.89-.62,.86-.88-.14-.42-.46-.76-.87-.93-1.32-.53-2.66-.98-4.03-1.35-1.09-.24-2.2-.43-3.31-.56-.61-.1-.91-.39-.85-.87,.06-.45,.39-.68,1-.6,2.74,.21,5.41,.91,7.9,2.07,.5,.27,.94,.63,1.31,1.06,.63,.65,.61,1.68-.03,2.31-.54,.54-1.16,.98-1.84,1.31-1.84,.81-3.8,1.34-5.8,1.58-3.48,.52-7.01,.75-10.53,.69"/>
      <path id="Path_30" data-name="Path 30" class="cls-3" d="M17.45,24.55c-4.94-.09-8.87-4.16-8.78-9.1S12.83,6.58,17.77,6.66c4.92,.09,8.84,4.13,8.78,9.04-.09,4.95-4.15,8.89-9.1,8.84m0-1.48c4.12-.04,7.43-3.42,7.39-7.54-.04-4.12-3.42-7.43-7.54-7.39-4.07,.04-7.36,3.34-7.39,7.41,0,4.16,3.38,7.53,7.54,7.52"/>
    </g>
  </g>
</svg>