<?xml version="1.0" encoding="UTF-8"?>
<svg id="Layer_1" data-name="Layer 1" xmlns="http://www.w3.org/2000/svg" xmlns:xlink="http://www.w3.org/1999/xlink" viewBox="0 0 35 35">
  <defs>
    <style>
      .cls-1 {
        fill: none;
      }

      .cls-2 {
        clip-path: url(#clippath);
      }

      .cls-3 {
        fill: #fff;
      }
    </style>
    <clipPath id="clippath">
      <rect class="cls-1" width="35" height="35"/>
    </clipPath>
  </defs>
  <g class="cls-2">
    <g id="Group_44" data-name="Group 44">
      <path id="Path_42" data-name="Path 42" class="cls-3" d="M17.51,0c9.66,0,17.49,7.85,17.49,17.51,0,9.66-7.85,17.49-17.51,17.49C7.82,34.99,0,27.15,0,17.49c0,0,0,0,0,0C-.02,7.85,7.76,.02,17.4,0c.04,0,.08,0,.12,0M8.1,12.56c.06,1.62,.52,3.2,1.36,4.59,1.22,2.03,2.73,3.87,4.5,5.45,1.33,1.32,2.86,2.42,4.52,3.28,1.56,.9,3.4,1.21,5.17,.87,1.44-.25,2.63-1.27,3.12-2.65,.35-.83,.07-1.79-.66-2.31-.7-.51-1.37-1.07-2-1.66-.64-.72-1.74-.8-2.47-.17-.75,.53-1.44,1.13-2.08,1.79-.31,.31-.52,.33-.83,.1-.58-.44-1.17-.87-1.72-1.35-1.45-1.23-2.74-2.63-3.83-4.19-.33-.49-.3-.48,.11-.88,.45-.4,.87-.84,1.25-1.31,.33-.45,.61-.94,.82-1.46,.22-.52,.1-1.13-.3-1.53-.67-.78-1.33-1.58-1.97-2.38-.38-.51-1.03-.75-1.65-.62-.46,.07-.9,.24-1.3,.48-1.32,.88-2.09,2.37-2.04,3.95"/>
    </g>
  </g>
</svg>