<?xml version="1.0" encoding="UTF-8"?>
<svg id="Layer_1" data-name="Layer 1" xmlns="http://www.w3.org/2000/svg" viewBox="0 0 160.89 68.04">
  <defs>
    <style>
      .cls-1 {
        fill: #f89728;
      }

      .cls-2 {
        fill: #f47923;
      }

      .cls-3 {
        fill: #f47722;
      }

      .cls-4 {
        fill: #f89525;
      }

      .cls-5 {
        fill: #f99e36;
      }

      .cls-6 {
        fill: #030303;
      }

      .cls-7 {
        fill: #050505;
      }

      .cls-8 {
        fill: #ed1f25;
      }

      .cls-9 {
        fill: #fbdedd;
      }

      .cls-10 {
        fill: #fbad27;
      }

      .cls-11 {
        fill: #fdf1f0;
      }

      .cls-12 {
        fill: #2e2d2d;
      }
    </style>
  </defs>
  <path class="cls-12" d="M147.85,47.55c-.87-.1-1.61,.07-2.03,.94,.71,2.88,1.42,5.76,2.23,9.04h-19.98c-.03-3.18,1.05-6.1,2.03-9.04-.49-.74-1.16-1.06-2.04-.93-1.6,6.09-3.04,11.55-4.64,17.64-.28,1.06-.1,3.23,1.08,2.79,1.42-.28,1.64-6.26,2.79-7.45h21.29c1.47,2.35,.96,5.29,3.12,7.1,.24,.2,1.25-.18,1.28-.5,.3-2.89-3.96-13.32-5.13-19.58Z"/>
  <path class="cls-8" d="M125.71,47.53c-6.59-4.2-8.36-8.28-10.15-15.37-.45-1.78-1.11-3.64-1.12-5.51h46.46c-.29,9.74-8.56,17.1-12.45,20.87-.69,.8-2.02,1.58-3.05,1.97-4.95,1.77-9.9,1.79-14.85-.03-1.04-.36-4.07-1.23-4.84-1.94Z"/>
  <path class="cls-7" d="M0,25.44H31.96c.25,2.63,.25,4.56-1.01,6.7h-10.56c-1.9,9.81-3.74,19.35-5.63,29.13-3.83,.34-7.59,.42-11.45-.07,1.79-9.59,3.54-19.01,5.34-28.65-3.04-.45-5.84-.34-8.64-.1v-7Z"/>
  <path class="cls-10" d="M140.27,0c.59,2.48,3.87,5.62,3.62,8.45-2.09,.52-3.58-.45-4.82-1.99,.86-1.57,1.47-2.85,1.39-3.68,.33,0-.52-2.78-.19-2.78Z"/>
  <path class="cls-6" d="M72.14,50.63h9.74c2.34,5.18,8.15,6.9,12.85,3.8,1.67-1.1,2.64-2.52,2.34-4.57-.27-1.81-1.71-2.27-3.22-2.62-2.26-.52-4.51-1.04-6.76-1.6-1.28-.32-2.58-.62-3.81-1.07-7.66-2.83-8.86-9.53-2.68-14.85,5.5-4.73,18.27-6.1,24.6-2.68,3.06,1.65,4.55,4.2,4.76,8.03-3.27,.76-6.52,.25-9.68,.34-2.71-4.08-7.33-5.29-10.92-2.91-1.3,.86-2.4,1.94-2.17,3.62,.2,1.49,1.42,2.18,2.78,2.5,2.57,.62,5.15,1.25,7.75,1.73,2.13,.39,4.19,.95,6.13,1.92,4.57,2.28,5.88,5.65,3.84,10.25-1.32,2.99-3.59,5.25-6.47,6.68-6.97,3.45-14.29,4.23-21.75,1.87-5.14-1.62-7.09-4.49-7.31-10.44Z"/>
  <path class="cls-2" d="M139.18,16.8c-.48,.58-.95,1.3-1.1,1.73-3.56-.03-9.77-.54-10.24-2.17,.15-.3,.34-.6,.28-.92,1.05-3.32,2.68-4.31,5.5-2.39,.25,.29,.84,1,1.09,1.3,2.62-2.29,5.5-2.03,8.48-.9,.99,1.36,1.99,1.15,3,.03,.26-.43,.64-1.06,.64-1.06,0,0,.12-.71,.16-.95,1.34-1.14,2.59-1.96,3.92-.84,.18,.21,.68,1.35,.83,1.95-.04,.58-.13,1.98-.53,3.17,.06,1.1-.57,2.36,.95,3.3,1.84,.33,2.22-1.95,3.63-2.59,2.18,2.49,1.44,4.9,.36,7.55-1.6-.62-2.66-2.13-4.21-1.43-2.98,1.36-4.26-.34-5.27-2.69-4.84,1.54-5.5,1.01-7.23-3.54l-.24,.43Z"/>
  <path class="cls-3" d="M127.84,16.36c1.76,1.17,3.74,1.04,5.73,1.13,1.53,.07,3.37-.82,4.51,1.05-1.23,2.47-3.29,2.62-5.84,3.25-3.61,.9-7.33,.19-10.94,1.41-.89-2.99,.67-5.23,2.65-7.56,1.47,.32,.48,2.2,1.67,2.51,1.25,.04,2.22-1.79,2.22-1.79Z"/>
  <path class="cls-4" d="M142.97,13.98c-2.71,1.45-5.52-.85-8.25,.37,.82-1.95,.4-3.94,2.42-5.87,.26-.37,.57-.69,.94-.96l.04-.04c.28-.36,.6-.7,.94-1h.01c1.88,0,3.25,1.23,4.82,1.98,0,.67,0,1.34,.01,2-.22,1.35-.45,1.59-.68,2.38-.02,.62-.09,.95-.25,1.16Z"/>
  <path class="cls-1" d="M134.72,14.35c-2.81-1.54-6.12,.37-6.59,1.09,.28-1.08,.33-1.82,.31-2.92-.02-1.16-1.9-1.79-.95-3.98,3.09,.4,6.52,2.09,7.23,5.81Z"/>
  <path class="cls-5" d="M150.98,11.49l-3.99-.02c-.04-1.67-1.26-2.93-.69-4.84,2.32,1.04,4.35,2.1,4.68,4.86Z"/>
  <path class="cls-6" d="M64.7,43.19c-.57-.31-1.07-.74-1.69-1.17,3.77-1.87,6.77-4.24,6.02-8.8-.71-4.32-4.58-5.26-7.95-6.6-.15-.06-.32-.07-.49-.1-7.41-1.18-14.84-.92-22.42-.69-2.25,11.89-4.44,23.44-6.73,35.54,7.79,0,14.93,.27,22.04-.09,4.83-.24,9.48-1.76,13.07-5.35,4.84-4.84,4.15-9.42-1.85-12.74Zm-16.25-10.95c2.23,.12,4.51,.09,6.74,.43,1.24,.19,2.56,.87,2.8,2.41,.26,1.69-.63,2.92-2.06,3.58-2.83,1.31-5.79,1.94-8.89,1.47-.26-2.92,.41-5.25,1.41-7.9Zm6.49,21.96c-3.46,1.11-7.04,1.61-10.78,.85-.53-2.99,1.17-5.5,1-8.48,3.32-1.02,6.43-.48,9.45,.07,1.78,.32,3.43,1.28,3.47,3.59,.04,2.21-1.4,3.42-3.15,3.98Z"/>
  <path class="cls-11" d="M129.13,45.75c-5.53-3.71-9.65-10.11-10.48-16.64,1.33-.58,3.62-.04,4.18,2.15,1.12,4.39,2.27,8.02,4.72,11.77l.8,1.3c.06,.17,.14,.34,.24,.49,.22,.34,.6,.94,.54,.94Z"/>
  <path class="cls-9" d="M143.98,44.55c.86-3.69,4.23-10.39,4.17-14.29-.02-1.48,.84-2.05,2.74-1.57,.23,4.69-1.78,8.73-4.03,12.71-.41,.39-2.51,3.56-2.88,3.16Z"/>
</svg>